<svg xmlns="http://www.w3.org/2000/svg" xmlns:xlink="http://www.w3.org/1999/xlink" width="500" zoomAndPan="magnify" viewBox="0 0 375 149.999998" height="200" preserveAspectRatio="xMidYMid meet" version="1.0"><defs><g/><clipPath id="be28cce6d0"><path d="M 13 77 L 122 77 L 122 139.691406 L 13 139.691406 Z M 13 77 " clip-rule="nonzero"/></clipPath><clipPath id="74b2a8f0f8"><path d="M 10.933594 10.691406 L 65 10.691406 L 65 105 L 10.933594 105 Z M 10.933594 10.691406 " clip-rule="nonzero"/></clipPath><clipPath id="6e72058bdb"><path d="M 70 10.691406 L 124.933594 10.691406 L 124.933594 105 L 70 105 Z M 70 10.691406 " clip-rule="nonzero"/></clipPath></defs><rect x="-37.5" width="450" fill="#ffffff" y="-15" height="179.999997" fill-opacity="1"/><rect x="-37.5" width="450" fill="#ffffff" y="-15" height="179.999997" fill-opacity="1"/><path fill="#430573" d="M 44.414062 61.101562 L 31.40625 68.605469 L 31.367188 53.570312 L 44.414062 46.082031 Z M 44.414062 61.101562 " fill-opacity="1" fill-rule="nonzero"/><g clip-path="url(#be28cce6d0)"><path fill="#430573" d="M 67.777344 77.40625 L 36.035156 95.765625 L 35.964844 95.800781 L 79.652344 121.039062 L 67.765625 127.902344 L 34.398438 108.648438 L 39.84375 105.503906 L 29.503906 99.535156 L 13.710938 108.652344 L 67.777344 139.863281 L 100.328125 121.042969 L 56.648438 95.796875 L 67.777344 89.375 L 101.132812 108.636719 L 95.804688 111.710938 L 95.011719 112.199219 L 104.660156 117.765625 L 105.320312 118.191406 L 121.824219 108.628906 Z M 67.777344 77.40625 " fill-opacity="1" fill-rule="nonzero"/></g><g clip-path="url(#74b2a8f0f8)"><path fill="#8f00ff" d="M 10.9375 41.78125 L 64.816406 10.691406 L 64.824219 34.371094 L 54.515625 40.285156 L 54.515625 28.550781 L 21.273438 47.742188 L 21.273438 86.152344 L 54.515625 66.945312 L 54.515625 55.367188 L 64.832031 49.457031 L 64.84375 72.890625 L 10.964844 104.003906 Z M 10.9375 41.78125 " fill-opacity="1" fill-rule="nonzero"/></g><g clip-path="url(#6e72058bdb)"><path fill="#8f00ff" d="M 124.601562 42.039062 L 124.585938 104.460938 L 114.230469 98.503906 L 114.234375 48.023438 L 103.105469 41.601562 L 102.601562 41.304688 L 102.589844 91.589844 L 92.234375 85.632812 L 92.234375 35.324219 L 80.851562 28.753906 L 80.867188 79.238281 L 70.511719 73.269531 L 70.511719 10.84375 Z M 124.601562 42.039062 " fill-opacity="1" fill-rule="nonzero"/></g><g fill="#430573" fill-opacity="1"><g transform="translate(128.940506, 82.615578)"><g><path d="M 20.875 -30.375 L 20.875 -25.375 C 20.875 -24.875 20.628906 -24.625 20.140625 -24.625 L 15.515625 -24.625 C 15.015625 -24.625 14.765625 -24.875 14.765625 -25.375 L 14.765625 -29.078125 C 14.765625 -30.304688 14.148438 -30.921875 12.921875 -30.921875 L 10.515625 -30.921875 C 9.273438 -30.921875 8.65625 -30.304688 8.65625 -29.078125 L 8.65625 -7.96875 C 8.65625 -6.726562 9.273438 -6.109375 10.515625 -6.109375 L 12.921875 -6.109375 C 14.148438 -6.109375 14.765625 -6.726562 14.765625 -7.96875 L 14.765625 -11.671875 C 14.765625 -12.160156 15.015625 -12.40625 15.515625 -12.40625 L 20.140625 -12.40625 C 20.628906 -12.40625 20.875 -12.160156 20.875 -11.671875 L 20.875 -6.671875 C 20.875 -4.503906 20.300781 -2.847656 19.15625 -1.703125 C 18.019531 -0.566406 16.375 0 14.21875 0 L 9.03125 0 C 6.863281 0 5.203125 -0.566406 4.046875 -1.703125 C 2.890625 -2.847656 2.3125 -4.503906 2.3125 -6.671875 L 2.3125 -30.375 C 2.3125 -32.5625 2.890625 -34.21875 4.046875 -35.34375 C 5.203125 -36.46875 6.863281 -37.03125 9.03125 -37.03125 L 14.21875 -37.03125 C 16.375 -37.03125 18.019531 -36.46875 19.15625 -35.34375 C 20.300781 -34.21875 20.875 -32.5625 20.875 -30.375 Z M 20.875 -30.375 "/></g></g></g><g fill="#430573" fill-opacity="1"><g transform="translate(152.127688, 82.615578)"><g><path d="M 8.984375 -37.03125 L 14.171875 -37.03125 C 16.359375 -37.03125 18.015625 -36.46875 19.140625 -35.34375 C 20.265625 -34.21875 20.828125 -32.5625 20.828125 -30.375 L 20.828125 -25.46875 C 20.828125 -24.96875 20.582031 -24.71875 20.09375 -24.71875 L 15.28125 -24.71875 C 14.78125 -24.71875 14.53125 -24.96875 14.53125 -25.46875 L 14.53125 -29.078125 C 14.53125 -30.304688 13.914062 -30.921875 12.6875 -30.921875 L 10.46875 -30.921875 C 9.226562 -30.921875 8.609375 -30.304688 8.609375 -29.078125 L 8.609375 -22.6875 L 19.625 -19.078125 C 20.425781 -18.734375 20.828125 -18.160156 20.828125 -17.359375 L 20.828125 -6.671875 C 20.828125 -4.503906 20.265625 -2.847656 19.140625 -1.703125 C 18.015625 -0.566406 16.359375 0 14.171875 0 L 8.984375 0 C 6.816406 0 5.160156 -0.566406 4.015625 -1.703125 C 2.878906 -2.847656 2.3125 -4.503906 2.3125 -6.671875 L 2.3125 -11.53125 C 2.3125 -12.019531 2.5625 -12.265625 3.0625 -12.265625 L 7.875 -12.265625 C 8.363281 -12.265625 8.609375 -12.019531 8.609375 -11.53125 L 8.609375 -7.96875 C 8.609375 -6.726562 9.226562 -6.109375 10.46875 -6.109375 L 12.6875 -6.109375 C 13.914062 -6.109375 14.53125 -6.726562 14.53125 -7.96875 L 14.53125 -14.125 L 3.5625 -17.734375 C 2.726562 -18.003906 2.3125 -18.570312 2.3125 -19.4375 L 2.3125 -30.375 C 2.3125 -32.5625 2.878906 -34.21875 4.015625 -35.34375 C 5.160156 -36.46875 6.816406 -37.03125 8.984375 -37.03125 Z M 8.984375 -37.03125 "/></g></g></g><g fill="#430573" fill-opacity="1"><g transform="translate(175.268592, 82.615578)"><g><path d="M 20.78125 -36.296875 L 20.78125 -31.671875 C 20.78125 -31.140625 20.535156 -30.875 20.046875 -30.875 L 8.46875 -30.875 L 8.46875 -21.625 L 17.3125 -21.625 C 17.8125 -21.625 18.0625 -21.359375 18.0625 -20.828125 L 18.0625 -16.25 C 18.0625 -15.726562 17.8125 -15.46875 17.3125 -15.46875 L 8.46875 -15.46875 L 8.46875 -6.109375 L 20.046875 -6.109375 C 20.535156 -6.109375 20.78125 -5.863281 20.78125 -5.375 L 20.78125 -0.734375 C 20.78125 -0.242188 20.535156 0 20.046875 0 L 3.015625 0 C 2.546875 0 2.3125 -0.242188 2.3125 -0.734375 L 2.3125 -36.296875 C 2.3125 -36.785156 2.546875 -37.03125 3.015625 -37.03125 L 20.046875 -37.03125 C 20.535156 -37.03125 20.78125 -36.785156 20.78125 -36.296875 Z M 20.78125 -36.296875 "/></g></g></g><g fill="#430573" fill-opacity="1"><g transform="translate(198.363217, 82.615578)"><g/></g></g><g fill="#430573" fill-opacity="1"><g transform="translate(209.933669, 82.615578)"><g><path d="M 8.984375 -37.03125 L 14.171875 -37.03125 C 16.359375 -37.03125 18.015625 -36.46875 19.140625 -35.34375 C 20.265625 -34.21875 20.828125 -32.5625 20.828125 -30.375 L 20.828125 -25.46875 C 20.828125 -24.96875 20.582031 -24.71875 20.09375 -24.71875 L 15.28125 -24.71875 C 14.78125 -24.71875 14.53125 -24.96875 14.53125 -25.46875 L 14.53125 -29.078125 C 14.53125 -30.304688 13.914062 -30.921875 12.6875 -30.921875 L 10.46875 -30.921875 C 9.226562 -30.921875 8.609375 -30.304688 8.609375 -29.078125 L 8.609375 -22.6875 L 19.625 -19.078125 C 20.425781 -18.734375 20.828125 -18.160156 20.828125 -17.359375 L 20.828125 -6.671875 C 20.828125 -4.503906 20.265625 -2.847656 19.140625 -1.703125 C 18.015625 -0.566406 16.359375 0 14.171875 0 L 8.984375 0 C 6.816406 0 5.160156 -0.566406 4.015625 -1.703125 C 2.878906 -2.847656 2.3125 -4.503906 2.3125 -6.671875 L 2.3125 -11.53125 C 2.3125 -12.019531 2.5625 -12.265625 3.0625 -12.265625 L 7.875 -12.265625 C 8.363281 -12.265625 8.609375 -12.019531 8.609375 -11.53125 L 8.609375 -7.96875 C 8.609375 -6.726562 9.226562 -6.109375 10.46875 -6.109375 L 12.6875 -6.109375 C 13.914062 -6.109375 14.53125 -6.726562 14.53125 -7.96875 L 14.53125 -14.125 L 3.5625 -17.734375 C 2.726562 -18.003906 2.3125 -18.570312 2.3125 -19.4375 L 2.3125 -30.375 C 2.3125 -32.5625 2.878906 -34.21875 4.015625 -35.34375 C 5.160156 -36.46875 6.816406 -37.03125 8.984375 -37.03125 Z M 8.984375 -37.03125 "/></g></g></g><g fill="#430573" fill-opacity="1"><g transform="translate(233.074572, 82.615578)"><g><path d="M 2.3125 -6.671875 L 2.3125 -30.375 C 2.3125 -32.5625 2.878906 -34.21875 4.015625 -35.34375 C 5.160156 -36.46875 6.816406 -37.03125 8.984375 -37.03125 L 14.171875 -37.03125 C 16.359375 -37.03125 18.015625 -36.46875 19.140625 -35.34375 C 20.265625 -34.21875 20.828125 -32.5625 20.828125 -30.375 L 20.828125 -6.671875 C 20.828125 -4.503906 20.265625 -2.847656 19.140625 -1.703125 C 18.015625 -0.566406 16.359375 0 14.171875 0 L 8.984375 0 C 6.816406 0 5.160156 -0.566406 4.015625 -1.703125 C 2.878906 -2.847656 2.3125 -4.503906 2.3125 -6.671875 Z M 10.328125 -5.96875 L 13.015625 -5.96875 C 14.242188 -5.96875 14.859375 -6.585938 14.859375 -7.828125 L 14.859375 -29.21875 C 14.859375 -30.445312 14.242188 -31.0625 13.015625 -31.0625 L 10.328125 -31.0625 C 9.085938 -31.0625 8.46875 -30.445312 8.46875 -29.21875 L 8.46875 -7.828125 C 8.46875 -6.585938 9.085938 -5.96875 10.328125 -5.96875 Z M 10.328125 -5.96875 "/></g></g></g><g fill="#430573" fill-opacity="1"><g transform="translate(256.215476, 82.615578)"><g><path d="M 20.875 -30.375 L 20.875 -25.375 C 20.875 -24.875 20.628906 -24.625 20.140625 -24.625 L 15.515625 -24.625 C 15.015625 -24.625 14.765625 -24.875 14.765625 -25.375 L 14.765625 -29.078125 C 14.765625 -30.304688 14.148438 -30.921875 12.921875 -30.921875 L 10.515625 -30.921875 C 9.273438 -30.921875 8.65625 -30.304688 8.65625 -29.078125 L 8.65625 -7.96875 C 8.65625 -6.726562 9.273438 -6.109375 10.515625 -6.109375 L 12.921875 -6.109375 C 14.148438 -6.109375 14.765625 -6.726562 14.765625 -7.96875 L 14.765625 -11.671875 C 14.765625 -12.160156 15.015625 -12.40625 15.515625 -12.40625 L 20.140625 -12.40625 C 20.628906 -12.40625 20.875 -12.160156 20.875 -11.671875 L 20.875 -6.671875 C 20.875 -4.503906 20.300781 -2.847656 19.15625 -1.703125 C 18.019531 -0.566406 16.375 0 14.21875 0 L 9.03125 0 C 6.863281 0 5.203125 -0.566406 4.046875 -1.703125 C 2.890625 -2.847656 2.3125 -4.503906 2.3125 -6.671875 L 2.3125 -30.375 C 2.3125 -32.5625 2.890625 -34.21875 4.046875 -35.34375 C 5.203125 -36.46875 6.863281 -37.03125 9.03125 -37.03125 L 14.21875 -37.03125 C 16.375 -37.03125 18.019531 -36.46875 19.15625 -35.34375 C 20.300781 -34.21875 20.875 -32.5625 20.875 -30.375 Z M 20.875 -30.375 "/></g></g></g><g fill="#430573" fill-opacity="1"><g transform="translate(279.402658, 82.615578)"><g><path d="M 3.0625 -37.03125 L 7.875 -37.03125 C 8.363281 -37.03125 8.609375 -36.785156 8.609375 -36.296875 L 8.609375 -0.734375 C 8.609375 -0.242188 8.363281 0 7.875 0 L 3.0625 0 C 2.5625 0 2.3125 -0.242188 2.3125 -0.734375 L 2.3125 -36.296875 C 2.3125 -36.785156 2.5625 -37.03125 3.0625 -37.03125 Z M 3.0625 -37.03125 "/></g></g></g><g fill="#430573" fill-opacity="1"><g transform="translate(290.325162, 82.615578)"><g><path d="M 20.78125 -36.296875 L 20.78125 -31.671875 C 20.78125 -31.140625 20.535156 -30.875 20.046875 -30.875 L 8.46875 -30.875 L 8.46875 -21.625 L 17.3125 -21.625 C 17.8125 -21.625 18.0625 -21.359375 18.0625 -20.828125 L 18.0625 -16.25 C 18.0625 -15.726562 17.8125 -15.46875 17.3125 -15.46875 L 8.46875 -15.46875 L 8.46875 -6.109375 L 20.046875 -6.109375 C 20.535156 -6.109375 20.78125 -5.863281 20.78125 -5.375 L 20.78125 -0.734375 C 20.78125 -0.242188 20.535156 0 20.046875 0 L 3.015625 0 C 2.546875 0 2.3125 -0.242188 2.3125 -0.734375 L 2.3125 -36.296875 C 2.3125 -36.785156 2.546875 -37.03125 3.015625 -37.03125 L 20.046875 -37.03125 C 20.535156 -37.03125 20.78125 -36.785156 20.78125 -36.296875 Z M 20.78125 -36.296875 "/></g></g></g><g fill="#430573" fill-opacity="1"><g transform="translate(313.419798, 82.615578)"><g><path d="M 2.125 -37.03125 L 19.171875 -37.03125 C 19.660156 -37.03125 19.90625 -36.785156 19.90625 -36.296875 L 19.90625 -31.671875 C 19.90625 -31.171875 19.660156 -30.921875 19.171875 -30.921875 L 13.796875 -30.921875 L 13.796875 -0.734375 C 13.796875 -0.242188 13.550781 0 13.0625 0 L 8.234375 0 C 7.742188 0 7.5 -0.242188 7.5 -0.734375 L 7.5 -30.921875 L 2.125 -30.921875 C 1.632812 -30.921875 1.390625 -31.171875 1.390625 -31.671875 L 1.390625 -36.296875 C 1.390625 -36.785156 1.632812 -37.03125 2.125 -37.03125 Z M 2.125 -37.03125 "/></g></g></g><g fill="#430573" fill-opacity="1"><g transform="translate(334.709426, 82.615578)"><g><path d="M 18.890625 -37.03125 L 23.515625 -37.03125 C 23.859375 -37.03125 24.101562 -36.9375 24.25 -36.75 C 24.40625 -36.570312 24.410156 -36.3125 24.265625 -35.96875 L 15.78125 -15.375 L 15.78125 -0.921875 C 15.78125 -0.304688 15.472656 0 14.859375 0 L 10.421875 0 C 9.796875 0 9.484375 -0.304688 9.484375 -0.921875 L 9.484375 -15.375 L 1.015625 -35.96875 C 0.890625 -36.3125 0.894531 -36.570312 1.03125 -36.75 C 1.175781 -36.9375 1.421875 -37.03125 1.765625 -37.03125 L 6.390625 -37.03125 C 6.910156 -37.03125 7.265625 -36.785156 7.453125 -36.296875 L 12.640625 -23.015625 L 17.828125 -36.296875 C 18.015625 -36.785156 18.367188 -37.03125 18.890625 -37.03125 Z M 18.890625 -37.03125 "/></g></g></g><g fill="#8f00ff" fill-opacity="1"><g transform="translate(134.788149, 103.20319)"><g><path d="M 6.25 0.28125 C 4.582031 0.28125 3.296875 -0.144531 2.390625 -1 C 1.484375 -1.851562 1.03125 -3.019531 1.03125 -4.5 L 1.03125 -8.515625 C 1.03125 -9.972656 1.476562 -11.128906 2.375 -11.984375 C 3.28125 -12.835938 4.570312 -13.265625 6.25 -13.265625 C 7.59375 -13.265625 8.671875 -13 9.484375 -12.46875 C 10.304688 -11.945312 10.890625 -11.191406 11.234375 -10.203125 C 11.316406 -9.984375 11.328125 -9.816406 11.265625 -9.703125 C 11.203125 -9.585938 11.0625 -9.488281 10.84375 -9.40625 L 9.859375 -9.0625 C 9.628906 -9 9.457031 -8.988281 9.34375 -9.03125 C 9.238281 -9.070312 9.144531 -9.207031 9.0625 -9.4375 C 8.863281 -10 8.535156 -10.421875 8.078125 -10.703125 C 7.628906 -10.984375 7.019531 -11.125 6.25 -11.125 C 5.3125 -11.125 4.585938 -10.898438 4.078125 -10.453125 C 3.578125 -10.003906 3.328125 -9.363281 3.328125 -8.53125 L 3.328125 -4.484375 C 3.328125 -3.640625 3.578125 -2.988281 4.078125 -2.53125 C 4.585938 -2.082031 5.3125 -1.859375 6.25 -1.859375 C 7.019531 -1.859375 7.628906 -2 8.078125 -2.28125 C 8.535156 -2.570312 8.867188 -3 9.078125 -3.5625 C 9.160156 -3.800781 9.253906 -3.945312 9.359375 -4 C 9.472656 -4.050781 9.640625 -4.035156 9.859375 -3.953125 L 10.84375 -3.609375 C 11.0625 -3.515625 11.203125 -3.410156 11.265625 -3.296875 C 11.328125 -3.179688 11.320312 -3.015625 11.25 -2.796875 C 10.90625 -1.804688 10.320312 -1.046875 9.5 -0.515625 C 8.6875 0.015625 7.601562 0.28125 6.25 0.28125 Z M 6.25 0.28125 "/></g></g></g><g fill="#8f00ff" fill-opacity="1"><g transform="translate(146.744066, 103.20319)"><g><path d="M 1.8125 0 C 1.601562 0 1.457031 -0.0390625 1.375 -0.125 C 1.289062 -0.207031 1.25 -0.351562 1.25 -0.5625 L 1.25 -12.96875 C 1.25 -13.175781 1.289062 -13.320312 1.375 -13.40625 C 1.457031 -13.5 1.601562 -13.546875 1.8125 -13.546875 L 2.796875 -13.546875 C 3.003906 -13.546875 3.148438 -13.5 3.234375 -13.40625 C 3.316406 -13.320312 3.359375 -13.175781 3.359375 -12.96875 L 3.359375 -0.5625 C 3.359375 -0.351562 3.316406 -0.207031 3.234375 -0.125 C 3.148438 -0.0390625 3.003906 0 2.796875 0 Z M 1.8125 0 "/></g></g></g><g fill="#8f00ff" fill-opacity="1"><g transform="translate(151.35093, 103.20319)"><g><path d="M 4.921875 0.28125 C 3.617188 0.28125 2.65625 -0.046875 2.03125 -0.703125 C 1.414062 -1.359375 1.109375 -2.257812 1.109375 -3.40625 L 1.109375 -8.921875 C 1.109375 -9.128906 1.148438 -9.273438 1.234375 -9.359375 C 1.316406 -9.441406 1.460938 -9.484375 1.671875 -9.484375 L 2.671875 -9.484375 C 2.878906 -9.484375 3.023438 -9.441406 3.109375 -9.359375 C 3.191406 -9.273438 3.234375 -9.128906 3.234375 -8.921875 L 3.234375 -3.46875 C 3.234375 -2.269531 3.898438 -1.671875 5.234375 -1.671875 C 5.585938 -1.671875 5.894531 -1.6875 6.15625 -1.71875 C 6.414062 -1.757812 6.660156 -1.816406 6.890625 -1.890625 C 7.023438 -1.929688 7.09375 -2.035156 7.09375 -2.203125 L 7.09375 -8.921875 C 7.09375 -9.128906 7.132812 -9.273438 7.21875 -9.359375 C 7.3125 -9.441406 7.460938 -9.484375 7.671875 -9.484375 L 8.65625 -9.484375 C 8.863281 -9.484375 9.007812 -9.441406 9.09375 -9.359375 C 9.175781 -9.273438 9.21875 -9.128906 9.21875 -8.921875 L 9.21875 -1.390625 C 9.21875 -1.109375 9.171875 -0.894531 9.078125 -0.75 C 8.992188 -0.613281 8.8125 -0.484375 8.53125 -0.359375 C 8.144531 -0.210938 7.664062 -0.0703125 7.09375 0.0625 C 6.519531 0.207031 5.796875 0.28125 4.921875 0.28125 Z M 4.921875 0.28125 "/></g></g></g><g fill="#8f00ff" fill-opacity="1"><g transform="translate(161.734669, 103.20319)"><g><path d="M 5.140625 0.28125 C 4.410156 0.28125 3.753906 0.210938 3.171875 0.078125 C 2.597656 -0.046875 2.148438 -0.175781 1.828125 -0.3125 C 1.535156 -0.445312 1.351562 -0.570312 1.28125 -0.6875 C 1.207031 -0.8125 1.171875 -1.019531 1.171875 -1.3125 L 1.171875 -12.96875 C 1.171875 -13.175781 1.207031 -13.320312 1.28125 -13.40625 C 1.363281 -13.5 1.507812 -13.546875 1.71875 -13.546875 L 2.71875 -13.546875 C 2.925781 -13.546875 3.070312 -13.5 3.15625 -13.40625 C 3.25 -13.320312 3.296875 -13.175781 3.296875 -12.96875 L 3.296875 -9.4375 C 3.566406 -9.5 3.882812 -9.566406 4.25 -9.640625 C 4.613281 -9.710938 5.019531 -9.75 5.46875 -9.75 C 6.769531 -9.75 7.726562 -9.425781 8.34375 -8.78125 C 8.96875 -8.132812 9.28125 -7.234375 9.28125 -6.078125 L 9.28125 -3.609375 C 9.28125 -2.347656 8.941406 -1.382812 8.265625 -0.71875 C 7.585938 -0.0507812 6.546875 0.28125 5.140625 0.28125 Z M 5 -1.671875 C 5.738281 -1.671875 6.28125 -1.832031 6.625 -2.15625 C 6.976562 -2.488281 7.15625 -2.988281 7.15625 -3.65625 L 7.15625 -6.015625 C 7.15625 -6.585938 6.984375 -7.03125 6.640625 -7.34375 C 6.304688 -7.65625 5.816406 -7.8125 5.171875 -7.8125 C 4.796875 -7.8125 4.441406 -7.773438 4.109375 -7.703125 C 3.785156 -7.628906 3.515625 -7.554688 3.296875 -7.484375 L 3.296875 -2.078125 C 3.296875 -2.035156 3.300781 -2 3.3125 -1.96875 C 3.320312 -1.9375 3.359375 -1.910156 3.421875 -1.890625 C 3.859375 -1.742188 4.382812 -1.671875 5 -1.671875 Z M 5 -1.671875 "/></g></g></g><g fill="#8f00ff" fill-opacity="1"><g transform="translate(171.899025, 103.20319)"><g/></g></g><g fill="#8f00ff" fill-opacity="1"><g transform="translate(175.902614, 103.20319)"><g><path d="M 2.03125 0 C 1.800781 0 1.640625 -0.046875 1.546875 -0.140625 C 1.453125 -0.234375 1.40625 -0.394531 1.40625 -0.625 L 1.40625 -12.375 C 1.40625 -12.601562 1.453125 -12.757812 1.546875 -12.84375 C 1.640625 -12.9375 1.800781 -12.984375 2.03125 -12.984375 L 2.84375 -12.984375 C 3.101562 -12.984375 3.285156 -12.953125 3.390625 -12.890625 C 3.503906 -12.835938 3.613281 -12.710938 3.71875 -12.515625 L 7.53125 -5.703125 L 11.328125 -12.5 C 11.429688 -12.707031 11.535156 -12.835938 11.640625 -12.890625 C 11.742188 -12.953125 11.921875 -12.984375 12.171875 -12.984375 L 13.0625 -12.984375 C 13.3125 -12.984375 13.476562 -12.9375 13.5625 -12.84375 C 13.65625 -12.757812 13.703125 -12.601562 13.703125 -12.375 L 13.703125 -0.625 C 13.703125 -0.394531 13.65625 -0.234375 13.5625 -0.140625 C 13.476562 -0.046875 13.3125 0 13.0625 0 L 12.125 0 C 11.894531 0 11.734375 -0.046875 11.640625 -0.140625 C 11.554688 -0.234375 11.515625 -0.394531 11.515625 -0.625 L 11.515625 -6.203125 C 11.515625 -7.222656 11.660156 -8.4375 11.953125 -9.84375 L 11.84375 -9.84375 C 11.601562 -9.15625 11.363281 -8.554688 11.125 -8.046875 C 10.882812 -7.546875 10.613281 -7.035156 10.3125 -6.515625 L 8.53125 -3.328125 C 8.4375 -3.171875 8.34375 -3.054688 8.25 -2.984375 C 8.15625 -2.921875 8.007812 -2.890625 7.8125 -2.890625 L 7.234375 -2.890625 C 7.046875 -2.890625 6.90625 -2.914062 6.8125 -2.96875 C 6.71875 -3.03125 6.617188 -3.148438 6.515625 -3.328125 L 4.6875 -6.515625 C 4.476562 -6.867188 4.296875 -7.207031 4.140625 -7.53125 C 3.992188 -7.851562 3.851562 -8.195312 3.71875 -8.5625 C 3.582031 -8.9375 3.4375 -9.367188 3.28125 -9.859375 L 3.140625 -9.859375 C 3.285156 -9.140625 3.390625 -8.488281 3.453125 -7.90625 C 3.515625 -7.332031 3.546875 -6.757812 3.546875 -6.1875 L 3.546875 -0.625 C 3.546875 -0.394531 3.5 -0.234375 3.40625 -0.140625 C 3.320312 -0.046875 3.160156 0 2.921875 0 Z M 2.03125 0 "/></g></g></g><g fill="#8f00ff" fill-opacity="1"><g transform="translate(190.984621, 103.20319)"><g><path d="M 5.09375 0.28125 C 3.738281 0.28125 2.695312 -0.046875 1.96875 -0.703125 C 1.25 -1.359375 0.890625 -2.253906 0.890625 -3.390625 L 0.890625 -6.09375 C 0.890625 -7.226562 1.25 -8.117188 1.96875 -8.765625 C 2.695312 -9.421875 3.738281 -9.75 5.09375 -9.75 C 6.46875 -9.75 7.515625 -9.421875 8.234375 -8.765625 C 8.953125 -8.117188 9.3125 -7.226562 9.3125 -6.09375 L 9.3125 -3.390625 C 9.3125 -2.253906 8.953125 -1.359375 8.234375 -0.703125 C 7.515625 -0.046875 6.46875 0.28125 5.09375 0.28125 Z M 5.09375 -1.640625 C 5.769531 -1.640625 6.285156 -1.789062 6.640625 -2.09375 C 7.003906 -2.40625 7.1875 -2.835938 7.1875 -3.390625 L 7.1875 -6.09375 C 7.1875 -6.65625 7.003906 -7.082031 6.640625 -7.375 C 6.285156 -7.675781 5.769531 -7.828125 5.09375 -7.828125 C 4.414062 -7.828125 3.898438 -7.675781 3.546875 -7.375 C 3.191406 -7.082031 3.015625 -6.65625 3.015625 -6.09375 L 3.015625 -3.390625 C 3.015625 -2.835938 3.191406 -2.40625 3.546875 -2.09375 C 3.898438 -1.789062 4.414062 -1.640625 5.09375 -1.640625 Z M 5.09375 -1.640625 "/></g></g></g><g fill="#8f00ff" fill-opacity="1"><g transform="translate(201.185541, 103.20319)"><g><path d="M 1.71875 0 C 1.507812 0 1.363281 -0.0390625 1.28125 -0.125 C 1.207031 -0.207031 1.171875 -0.351562 1.171875 -0.5625 L 1.171875 -8.09375 C 1.171875 -8.382812 1.21875 -8.597656 1.3125 -8.734375 C 1.40625 -8.878906 1.585938 -9.007812 1.859375 -9.125 C 2.242188 -9.269531 2.722656 -9.410156 3.296875 -9.546875 C 3.867188 -9.679688 4.59375 -9.75 5.46875 -9.75 C 6.769531 -9.75 7.726562 -9.425781 8.34375 -8.78125 C 8.96875 -8.132812 9.28125 -7.234375 9.28125 -6.078125 L 9.28125 -0.5625 C 9.28125 -0.351562 9.234375 -0.207031 9.140625 -0.125 C 9.054688 -0.0390625 8.910156 0 8.703125 0 L 7.71875 0 C 7.507812 0 7.363281 -0.0390625 7.28125 -0.125 C 7.195312 -0.207031 7.15625 -0.351562 7.15625 -0.5625 L 7.15625 -6.015625 C 7.15625 -7.210938 6.488281 -7.8125 5.15625 -7.8125 C 4.8125 -7.8125 4.492188 -7.785156 4.203125 -7.734375 C 3.910156 -7.691406 3.644531 -7.640625 3.40625 -7.578125 C 3.332031 -7.535156 3.296875 -7.472656 3.296875 -7.390625 L 3.296875 -0.5625 C 3.296875 -0.351562 3.25 -0.207031 3.15625 -0.125 C 3.070312 -0.0390625 2.925781 0 2.71875 0 Z M 1.71875 0 "/></g></g></g><g fill="#8f00ff" fill-opacity="1"><g transform="translate(211.56928, 103.20319)"><g><path d="M 2.171875 -11.109375 C 1.765625 -11.109375 1.484375 -11.179688 1.328125 -11.328125 C 1.171875 -11.472656 1.09375 -11.753906 1.09375 -12.171875 L 1.09375 -12.328125 C 1.09375 -12.753906 1.171875 -13.035156 1.328125 -13.171875 C 1.484375 -13.304688 1.765625 -13.375 2.171875 -13.375 L 2.328125 -13.375 C 2.753906 -13.375 3.039062 -13.304688 3.1875 -13.171875 C 3.332031 -13.035156 3.40625 -12.753906 3.40625 -12.328125 L 3.40625 -12.171875 C 3.40625 -11.753906 3.332031 -11.472656 3.1875 -11.328125 C 3.039062 -11.179688 2.753906 -11.109375 2.328125 -11.109375 Z M 1.75 0 C 1.550781 0 1.40625 -0.0390625 1.3125 -0.125 C 1.226562 -0.207031 1.1875 -0.351562 1.1875 -0.5625 L 1.1875 -8.921875 C 1.1875 -9.128906 1.226562 -9.273438 1.3125 -9.359375 C 1.40625 -9.441406 1.550781 -9.484375 1.75 -9.484375 L 2.75 -9.484375 C 2.957031 -9.484375 3.101562 -9.441406 3.1875 -9.359375 C 3.269531 -9.273438 3.3125 -9.128906 3.3125 -8.921875 L 3.3125 -0.5625 C 3.3125 -0.351562 3.269531 -0.207031 3.1875 -0.125 C 3.101562 -0.0390625 2.957031 0 2.75 0 Z M 1.75 0 "/></g></g></g><g fill="#8f00ff" fill-opacity="1"><g transform="translate(216.066464, 103.20319)"><g><path d="M 6.3125 0 C 5.289062 0 4.46875 -0.113281 3.84375 -0.34375 C 3.226562 -0.570312 2.785156 -0.984375 2.515625 -1.578125 C 2.242188 -2.171875 2.109375 -2.992188 2.109375 -4.046875 L 2.109375 -7.515625 L 0.859375 -7.515625 C 0.648438 -7.515625 0.503906 -7.554688 0.421875 -7.640625 C 0.335938 -7.734375 0.296875 -7.882812 0.296875 -8.09375 L 0.296875 -8.921875 C 0.296875 -9.128906 0.335938 -9.273438 0.421875 -9.359375 C 0.503906 -9.441406 0.648438 -9.484375 0.859375 -9.484375 L 2.109375 -9.484375 L 2.109375 -11.125 C 2.109375 -11.332031 2.148438 -11.472656 2.234375 -11.546875 C 2.316406 -11.628906 2.460938 -11.671875 2.671875 -11.671875 L 3.671875 -11.671875 C 3.878906 -11.671875 4.023438 -11.628906 4.109375 -11.546875 C 4.191406 -11.472656 4.234375 -11.332031 4.234375 -11.125 L 4.234375 -9.484375 L 6.328125 -9.484375 C 6.535156 -9.484375 6.675781 -9.441406 6.75 -9.359375 C 6.832031 -9.273438 6.875 -9.128906 6.875 -8.921875 L 6.875 -8.09375 C 6.875 -7.882812 6.832031 -7.734375 6.75 -7.640625 C 6.675781 -7.554688 6.535156 -7.515625 6.328125 -7.515625 L 4.234375 -7.515625 L 4.234375 -4.109375 C 4.234375 -3.515625 4.296875 -3.066406 4.421875 -2.765625 C 4.554688 -2.472656 4.773438 -2.273438 5.078125 -2.171875 C 5.390625 -2.066406 5.800781 -2.015625 6.3125 -2.015625 C 6.519531 -2.015625 6.664062 -1.96875 6.75 -1.875 C 6.832031 -1.789062 6.875 -1.648438 6.875 -1.453125 L 6.875 -0.578125 C 6.875 -0.378906 6.832031 -0.234375 6.75 -0.140625 C 6.664062 -0.046875 6.519531 0 6.3125 0 Z M 6.3125 0 "/></g></g></g><g fill="#8f00ff" fill-opacity="1"><g transform="translate(223.433792, 103.20319)"><g><path d="M 5.09375 0.28125 C 3.738281 0.28125 2.695312 -0.046875 1.96875 -0.703125 C 1.25 -1.359375 0.890625 -2.253906 0.890625 -3.390625 L 0.890625 -6.09375 C 0.890625 -7.226562 1.25 -8.117188 1.96875 -8.765625 C 2.695312 -9.421875 3.738281 -9.75 5.09375 -9.75 C 6.46875 -9.75 7.515625 -9.421875 8.234375 -8.765625 C 8.953125 -8.117188 9.3125 -7.226562 9.3125 -6.09375 L 9.3125 -3.390625 C 9.3125 -2.253906 8.953125 -1.359375 8.234375 -0.703125 C 7.515625 -0.046875 6.46875 0.28125 5.09375 0.28125 Z M 5.09375 -1.640625 C 5.769531 -1.640625 6.285156 -1.789062 6.640625 -2.09375 C 7.003906 -2.40625 7.1875 -2.835938 7.1875 -3.390625 L 7.1875 -6.09375 C 7.1875 -6.65625 7.003906 -7.082031 6.640625 -7.375 C 6.285156 -7.675781 5.769531 -7.828125 5.09375 -7.828125 C 4.414062 -7.828125 3.898438 -7.675781 3.546875 -7.375 C 3.191406 -7.082031 3.015625 -6.65625 3.015625 -6.09375 L 3.015625 -3.390625 C 3.015625 -2.835938 3.191406 -2.40625 3.546875 -2.09375 C 3.898438 -1.789062 4.414062 -1.640625 5.09375 -1.640625 Z M 5.09375 -1.640625 "/></g></g></g><g fill="#8f00ff" fill-opacity="1"><g transform="translate(233.634712, 103.20319)"><g><path d="M 1.71875 0 C 1.507812 0 1.363281 -0.0390625 1.28125 -0.125 C 1.207031 -0.207031 1.171875 -0.351562 1.171875 -0.5625 L 1.171875 -7.90625 C 1.171875 -8.1875 1.21875 -8.398438 1.3125 -8.546875 C 1.40625 -8.691406 1.585938 -8.816406 1.859375 -8.921875 C 2.203125 -9.054688 2.648438 -9.179688 3.203125 -9.296875 C 3.765625 -9.421875 4.453125 -9.484375 5.265625 -9.484375 L 5.875 -9.484375 C 6.082031 -9.484375 6.222656 -9.441406 6.296875 -9.359375 C 6.378906 -9.273438 6.421875 -9.128906 6.421875 -8.921875 L 6.421875 -8.109375 C 6.421875 -7.898438 6.378906 -7.753906 6.296875 -7.671875 C 6.222656 -7.597656 6.082031 -7.5625 5.875 -7.5625 L 5.21875 -7.5625 C 4.851562 -7.5625 4.53125 -7.535156 4.25 -7.484375 C 3.96875 -7.441406 3.703125 -7.394531 3.453125 -7.34375 C 3.347656 -7.300781 3.296875 -7.21875 3.296875 -7.09375 L 3.296875 -0.5625 C 3.296875 -0.351562 3.25 -0.207031 3.15625 -0.125 C 3.070312 -0.0390625 2.925781 0 2.71875 0 Z M 1.71875 0 "/></g></g></g><g fill="#8f00ff" fill-opacity="1"><g transform="translate(240.325637, 103.20319)"><g><path d="M 2.171875 -11.109375 C 1.765625 -11.109375 1.484375 -11.179688 1.328125 -11.328125 C 1.171875 -11.472656 1.09375 -11.753906 1.09375 -12.171875 L 1.09375 -12.328125 C 1.09375 -12.753906 1.171875 -13.035156 1.328125 -13.171875 C 1.484375 -13.304688 1.765625 -13.375 2.171875 -13.375 L 2.328125 -13.375 C 2.753906 -13.375 3.039062 -13.304688 3.1875 -13.171875 C 3.332031 -13.035156 3.40625 -12.753906 3.40625 -12.328125 L 3.40625 -12.171875 C 3.40625 -11.753906 3.332031 -11.472656 3.1875 -11.328125 C 3.039062 -11.179688 2.753906 -11.109375 2.328125 -11.109375 Z M 1.75 0 C 1.550781 0 1.40625 -0.0390625 1.3125 -0.125 C 1.226562 -0.207031 1.1875 -0.351562 1.1875 -0.5625 L 1.1875 -8.921875 C 1.1875 -9.128906 1.226562 -9.273438 1.3125 -9.359375 C 1.40625 -9.441406 1.550781 -9.484375 1.75 -9.484375 L 2.75 -9.484375 C 2.957031 -9.484375 3.101562 -9.441406 3.1875 -9.359375 C 3.269531 -9.273438 3.3125 -9.128906 3.3125 -8.921875 L 3.3125 -0.5625 C 3.3125 -0.351562 3.269531 -0.207031 3.1875 -0.125 C 3.101562 -0.0390625 2.957031 0 2.75 0 Z M 1.75 0 "/></g></g></g><g fill="#8f00ff" fill-opacity="1"><g transform="translate(244.822822, 103.20319)"><g><path d="M 1.71875 0 C 1.507812 0 1.363281 -0.0390625 1.28125 -0.125 C 1.207031 -0.207031 1.171875 -0.351562 1.171875 -0.5625 L 1.171875 -8.09375 C 1.171875 -8.382812 1.21875 -8.597656 1.3125 -8.734375 C 1.40625 -8.878906 1.585938 -9.007812 1.859375 -9.125 C 2.242188 -9.269531 2.722656 -9.410156 3.296875 -9.546875 C 3.867188 -9.679688 4.59375 -9.75 5.46875 -9.75 C 6.769531 -9.75 7.726562 -9.425781 8.34375 -8.78125 C 8.96875 -8.132812 9.28125 -7.234375 9.28125 -6.078125 L 9.28125 -0.5625 C 9.28125 -0.351562 9.234375 -0.207031 9.140625 -0.125 C 9.054688 -0.0390625 8.910156 0 8.703125 0 L 7.71875 0 C 7.507812 0 7.363281 -0.0390625 7.28125 -0.125 C 7.195312 -0.207031 7.15625 -0.351562 7.15625 -0.5625 L 7.15625 -6.015625 C 7.15625 -7.210938 6.488281 -7.8125 5.15625 -7.8125 C 4.8125 -7.8125 4.492188 -7.785156 4.203125 -7.734375 C 3.910156 -7.691406 3.644531 -7.640625 3.40625 -7.578125 C 3.332031 -7.535156 3.296875 -7.472656 3.296875 -7.390625 L 3.296875 -0.5625 C 3.296875 -0.351562 3.25 -0.207031 3.15625 -0.125 C 3.070312 -0.0390625 2.925781 0 2.71875 0 Z M 1.71875 0 "/></g></g></g><g fill="#8f00ff" fill-opacity="1"><g transform="translate(255.20656, 103.20319)"><g><path d="M 4.984375 4.296875 C 3.992188 4.296875 3.191406 4.132812 2.578125 3.8125 C 1.972656 3.5 1.507812 3.078125 1.1875 2.546875 C 0.914062 2.148438 0.988281 1.84375 1.40625 1.625 L 2.109375 1.25 C 2.328125 1.132812 2.5 1.09375 2.625 1.125 C 2.75 1.15625 2.878906 1.269531 3.015625 1.46875 C 3.210938 1.769531 3.457031 2 3.75 2.15625 C 4.039062 2.3125 4.4375 2.390625 4.9375 2.390625 C 6.226562 2.390625 6.875 1.734375 6.875 0.421875 L 6.875 -0.5 C 6.613281 -0.425781 6.289062 -0.351562 5.90625 -0.28125 C 5.53125 -0.207031 5.125 -0.171875 4.6875 -0.171875 C 3.394531 -0.171875 2.4375 -0.492188 1.8125 -1.140625 C 1.195312 -1.796875 0.890625 -2.695312 0.890625 -3.84375 L 0.890625 -5.90625 C 0.890625 -7.15625 1.226562 -8.109375 1.90625 -8.765625 C 2.582031 -9.421875 3.617188 -9.75 5.015625 -9.75 C 5.753906 -9.75 6.410156 -9.691406 6.984375 -9.578125 C 7.554688 -9.460938 8.003906 -9.332031 8.328125 -9.1875 C 8.617188 -9.050781 8.800781 -8.921875 8.875 -8.796875 C 8.957031 -8.679688 9 -8.472656 9 -8.171875 L 9 0.3125 C 9 1.507812 8.6875 2.472656 8.0625 3.203125 C 7.445312 3.929688 6.421875 4.296875 4.984375 4.296875 Z M 5 -2.109375 C 5.382812 -2.109375 5.734375 -2.132812 6.046875 -2.1875 C 6.367188 -2.25 6.644531 -2.304688 6.875 -2.359375 L 6.875 -7.390625 C 6.875 -7.503906 6.828125 -7.578125 6.734375 -7.609375 C 6.523438 -7.671875 6.285156 -7.71875 6.015625 -7.75 C 5.742188 -7.789062 5.460938 -7.8125 5.171875 -7.8125 C 4.429688 -7.8125 3.882812 -7.648438 3.53125 -7.328125 C 3.1875 -7.015625 3.015625 -6.519531 3.015625 -5.84375 L 3.015625 -3.890625 C 3.015625 -3.316406 3.179688 -2.875 3.515625 -2.5625 C 3.859375 -2.257812 4.351562 -2.109375 5 -2.109375 Z M 5 -2.109375 "/></g></g></g><g fill="#8f00ff" fill-opacity="1"><g transform="translate(265.370916, 103.20319)"><g/></g></g><g fill="#8f00ff" fill-opacity="1"><g transform="translate(269.374505, 103.20319)"><g><path d="M 5.875 0.28125 C 4.457031 0.28125 3.359375 0.0195312 2.578125 -0.5 C 1.796875 -1.03125 1.21875 -1.789062 0.84375 -2.78125 C 0.769531 -3.007812 0.757812 -3.179688 0.8125 -3.296875 C 0.863281 -3.410156 1.007812 -3.507812 1.25 -3.59375 L 2.234375 -3.953125 C 2.453125 -4.023438 2.613281 -4.03125 2.71875 -3.96875 C 2.832031 -3.914062 2.929688 -3.78125 3.015625 -3.5625 C 3.265625 -3.03125 3.625 -2.613281 4.09375 -2.3125 C 4.570312 -2.007812 5.164062 -1.859375 5.875 -1.859375 C 6.8125 -1.859375 7.53125 -2.007812 8.03125 -2.3125 C 8.53125 -2.625 8.78125 -3.109375 8.78125 -3.765625 C 8.78125 -4.191406 8.644531 -4.519531 8.375 -4.75 C 8.113281 -4.976562 7.765625 -5.140625 7.328125 -5.234375 C 6.890625 -5.335938 6.410156 -5.414062 5.890625 -5.46875 C 5.328125 -5.53125 4.753906 -5.613281 4.171875 -5.71875 C 3.597656 -5.820312 3.0625 -6 2.5625 -6.25 C 2.070312 -6.5 1.675781 -6.859375 1.375 -7.328125 C 1.082031 -7.804688 0.9375 -8.453125 0.9375 -9.265625 C 0.9375 -10.035156 1.125 -10.71875 1.5 -11.3125 C 1.875 -11.914062 2.429688 -12.390625 3.171875 -12.734375 C 3.921875 -13.085938 4.847656 -13.265625 5.953125 -13.265625 C 7.253906 -13.265625 8.269531 -13.03125 9 -12.5625 C 9.726562 -12.09375 10.304688 -11.40625 10.734375 -10.5 C 10.847656 -10.289062 10.875 -10.125 10.8125 -10 C 10.757812 -9.875 10.625 -9.757812 10.40625 -9.65625 L 9.390625 -9.21875 C 9.191406 -9.132812 9.035156 -9.113281 8.921875 -9.15625 C 8.816406 -9.195312 8.707031 -9.320312 8.59375 -9.53125 C 8.351562 -10.019531 8.03125 -10.394531 7.625 -10.65625 C 7.226562 -10.925781 6.671875 -11.0625 5.953125 -11.0625 C 4.171875 -11.0625 3.28125 -10.503906 3.28125 -9.390625 C 3.28125 -8.953125 3.425781 -8.617188 3.71875 -8.390625 C 4.019531 -8.160156 4.410156 -7.992188 4.890625 -7.890625 C 5.367188 -7.785156 5.882812 -7.703125 6.4375 -7.640625 C 6.976562 -7.585938 7.519531 -7.5 8.0625 -7.375 C 8.613281 -7.25 9.117188 -7.054688 9.578125 -6.796875 C 10.035156 -6.535156 10.398438 -6.164062 10.671875 -5.6875 C 10.953125 -5.21875 11.09375 -4.597656 11.09375 -3.828125 C 11.09375 -2.609375 10.640625 -1.617188 9.734375 -0.859375 C 8.835938 -0.0976562 7.550781 0.28125 5.875 0.28125 Z M 5.875 0.28125 "/></g></g></g><g fill="#8f00ff" fill-opacity="1"><g transform="translate(281.220742, 103.20319)"><g><path d="M 5.203125 4.3125 C 4.210938 4.3125 3.410156 4.148438 2.796875 3.828125 C 2.191406 3.503906 1.726562 3.078125 1.40625 2.546875 C 1.132812 2.148438 1.207031 1.84375 1.625 1.625 L 2.328125 1.25 C 2.546875 1.132812 2.71875 1.09375 2.84375 1.125 C 2.96875 1.15625 3.097656 1.269531 3.234375 1.46875 C 3.429688 1.769531 3.675781 2.003906 3.96875 2.171875 C 4.269531 2.335938 4.664062 2.421875 5.15625 2.421875 C 6.445312 2.421875 7.09375 1.753906 7.09375 0.421875 L 7.09375 -0.4375 C 6.832031 -0.375 6.519531 -0.316406 6.15625 -0.265625 C 5.789062 -0.210938 5.378906 -0.1875 4.921875 -0.1875 C 3.617188 -0.1875 2.65625 -0.507812 2.03125 -1.15625 C 1.414062 -1.8125 1.109375 -2.710938 1.109375 -3.859375 L 1.109375 -8.921875 C 1.109375 -9.128906 1.148438 -9.273438 1.234375 -9.359375 C 1.316406 -9.441406 1.460938 -9.484375 1.671875 -9.484375 L 2.671875 -9.484375 C 2.878906 -9.484375 3.023438 -9.441406 3.109375 -9.359375 C 3.191406 -9.273438 3.234375 -9.128906 3.234375 -8.921875 L 3.234375 -3.9375 C 3.234375 -2.726562 3.898438 -2.125 5.234375 -2.125 C 5.609375 -2.125 5.953125 -2.148438 6.265625 -2.203125 C 6.578125 -2.253906 6.851562 -2.3125 7.09375 -2.375 L 7.09375 -8.921875 C 7.09375 -9.128906 7.132812 -9.273438 7.21875 -9.359375 C 7.3125 -9.441406 7.460938 -9.484375 7.671875 -9.484375 L 8.65625 -9.484375 C 8.875 -9.484375 9.019531 -9.441406 9.09375 -9.359375 C 9.175781 -9.273438 9.21875 -9.128906 9.21875 -8.921875 L 9.21875 0.3125 C 9.21875 1.101562 9.078125 1.800781 8.796875 2.40625 C 8.523438 3.007812 8.097656 3.476562 7.515625 3.8125 C 6.929688 4.144531 6.160156 4.3125 5.203125 4.3125 Z M 5.203125 4.3125 "/></g></g></g><g fill="#8f00ff" fill-opacity="1"><g transform="translate(291.641033, 103.20319)"><g><path d="M 4.828125 0.28125 C 3.753906 0.28125 2.878906 0.0859375 2.203125 -0.296875 C 1.523438 -0.679688 1.046875 -1.226562 0.765625 -1.9375 C 0.617188 -2.3125 0.742188 -2.566406 1.140625 -2.703125 L 1.953125 -2.96875 C 2.148438 -3.03125 2.300781 -3.035156 2.40625 -2.984375 C 2.519531 -2.941406 2.617188 -2.816406 2.703125 -2.609375 C 2.847656 -2.253906 3.085938 -2 3.421875 -1.84375 C 3.765625 -1.6875 4.21875 -1.609375 4.78125 -1.609375 C 6.082031 -1.609375 6.734375 -1.96875 6.734375 -2.6875 C 6.734375 -3.113281 6.550781 -3.394531 6.1875 -3.53125 C 5.820312 -3.675781 5.269531 -3.785156 4.53125 -3.859375 C 4.082031 -3.910156 3.640625 -3.976562 3.203125 -4.0625 C 2.765625 -4.15625 2.363281 -4.300781 2 -4.5 C 1.644531 -4.707031 1.359375 -4.992188 1.140625 -5.359375 C 0.929688 -5.722656 0.828125 -6.207031 0.828125 -6.8125 C 0.828125 -7.675781 1.140625 -8.378906 1.765625 -8.921875 C 2.398438 -9.472656 3.347656 -9.75 4.609375 -9.75 C 5.660156 -9.75 6.5 -9.570312 7.125 -9.21875 C 7.75 -8.863281 8.21875 -8.390625 8.53125 -7.796875 C 8.632812 -7.585938 8.660156 -7.421875 8.609375 -7.296875 C 8.554688 -7.179688 8.425781 -7.070312 8.21875 -6.96875 L 7.40625 -6.640625 C 7.195312 -6.554688 7.046875 -6.53125 6.953125 -6.5625 C 6.859375 -6.59375 6.75 -6.703125 6.625 -6.890625 C 6.46875 -7.171875 6.242188 -7.40625 5.953125 -7.59375 C 5.671875 -7.78125 5.234375 -7.875 4.640625 -7.875 C 4.046875 -7.875 3.609375 -7.785156 3.328125 -7.609375 C 3.054688 -7.441406 2.921875 -7.191406 2.921875 -6.859375 C 2.921875 -6.429688 3.097656 -6.148438 3.453125 -6.015625 C 3.816406 -5.878906 4.351562 -5.785156 5.0625 -5.734375 C 5.800781 -5.648438 6.445312 -5.519531 7 -5.34375 C 7.5625 -5.175781 8 -4.890625 8.3125 -4.484375 C 8.632812 -4.085938 8.796875 -3.519531 8.796875 -2.78125 C 8.796875 -1.894531 8.457031 -1.160156 7.78125 -0.578125 C 7.113281 -0.00390625 6.128906 0.28125 4.828125 0.28125 Z M 4.828125 0.28125 "/></g></g></g><g fill="#8f00ff" fill-opacity="1"><g transform="translate(301.11071, 103.20319)"><g><path d="M 6.3125 0 C 5.289062 0 4.46875 -0.113281 3.84375 -0.34375 C 3.226562 -0.570312 2.785156 -0.984375 2.515625 -1.578125 C 2.242188 -2.171875 2.109375 -2.992188 2.109375 -4.046875 L 2.109375 -7.515625 L 0.859375 -7.515625 C 0.648438 -7.515625 0.503906 -7.554688 0.421875 -7.640625 C 0.335938 -7.734375 0.296875 -7.882812 0.296875 -8.09375 L 0.296875 -8.921875 C 0.296875 -9.128906 0.335938 -9.273438 0.421875 -9.359375 C 0.503906 -9.441406 0.648438 -9.484375 0.859375 -9.484375 L 2.109375 -9.484375 L 2.109375 -11.125 C 2.109375 -11.332031 2.148438 -11.472656 2.234375 -11.546875 C 2.316406 -11.628906 2.460938 -11.671875 2.671875 -11.671875 L 3.671875 -11.671875 C 3.878906 -11.671875 4.023438 -11.628906 4.109375 -11.546875 C 4.191406 -11.472656 4.234375 -11.332031 4.234375 -11.125 L 4.234375 -9.484375 L 6.328125 -9.484375 C 6.535156 -9.484375 6.675781 -9.441406 6.75 -9.359375 C 6.832031 -9.273438 6.875 -9.128906 6.875 -8.921875 L 6.875 -8.09375 C 6.875 -7.882812 6.832031 -7.734375 6.75 -7.640625 C 6.675781 -7.554688 6.535156 -7.515625 6.328125 -7.515625 L 4.234375 -7.515625 L 4.234375 -4.109375 C 4.234375 -3.515625 4.296875 -3.066406 4.421875 -2.765625 C 4.554688 -2.472656 4.773438 -2.273438 5.078125 -2.171875 C 5.390625 -2.066406 5.800781 -2.015625 6.3125 -2.015625 C 6.519531 -2.015625 6.664062 -1.96875 6.75 -1.875 C 6.832031 -1.789062 6.875 -1.648438 6.875 -1.453125 L 6.875 -0.578125 C 6.875 -0.378906 6.832031 -0.234375 6.75 -0.140625 C 6.664062 -0.046875 6.519531 0 6.3125 0 Z M 6.3125 0 "/></g></g></g><g fill="#8f00ff" fill-opacity="1"><g transform="translate(308.478038, 103.20319)"><g><path d="M 5.0625 0.28125 C 4.0625 0.28125 3.253906 0.109375 2.640625 -0.234375 C 2.023438 -0.578125 1.570312 -1.046875 1.28125 -1.640625 C 1 -2.234375 0.859375 -2.898438 0.859375 -3.640625 L 0.859375 -5.796875 C 0.859375 -7.066406 1.21875 -8.039062 1.9375 -8.71875 C 2.664062 -9.40625 3.722656 -9.75 5.109375 -9.75 C 6.078125 -9.75 6.875 -9.578125 7.5 -9.234375 C 8.125 -8.898438 8.585938 -8.445312 8.890625 -7.875 C 9.191406 -7.3125 9.34375 -6.675781 9.34375 -5.96875 L 9.34375 -4.84375 C 9.34375 -4.613281 9.285156 -4.425781 9.171875 -4.28125 C 9.054688 -4.132812 8.84375 -4.0625 8.53125 -4.0625 L 2.984375 -4.0625 L 2.984375 -3.390625 C 2.984375 -2.785156 3.164062 -2.328125 3.53125 -2.015625 C 3.894531 -1.710938 4.414062 -1.5625 5.09375 -1.5625 C 5.625 -1.5625 6.066406 -1.644531 6.421875 -1.8125 C 6.773438 -1.976562 7.050781 -2.21875 7.25 -2.53125 C 7.382812 -2.738281 7.515625 -2.851562 7.640625 -2.875 C 7.765625 -2.90625 7.9375 -2.863281 8.15625 -2.75 L 8.796875 -2.390625 C 9.210938 -2.203125 9.285156 -1.898438 9.015625 -1.484375 C 8.691406 -0.941406 8.210938 -0.507812 7.578125 -0.1875 C 6.953125 0.125 6.113281 0.28125 5.0625 0.28125 Z M 2.984375 -5.6875 L 7.234375 -5.6875 L 7.234375 -6.09375 C 7.234375 -6.6875 7.050781 -7.144531 6.6875 -7.46875 C 6.320312 -7.789062 5.796875 -7.953125 5.109375 -7.953125 C 4.421875 -7.953125 3.894531 -7.789062 3.53125 -7.46875 C 3.164062 -7.144531 2.984375 -6.6875 2.984375 -6.09375 Z M 2.984375 -5.6875 "/></g></g></g><g fill="#8f00ff" fill-opacity="1"><g transform="translate(318.569277, 103.20319)"><g><path d="M 1.71875 0 C 1.507812 0 1.363281 -0.0390625 1.28125 -0.125 C 1.207031 -0.207031 1.171875 -0.351562 1.171875 -0.5625 L 1.171875 -8.09375 C 1.171875 -8.382812 1.21875 -8.597656 1.3125 -8.734375 C 1.40625 -8.878906 1.585938 -9.007812 1.859375 -9.125 C 2.234375 -9.269531 2.679688 -9.410156 3.203125 -9.546875 C 3.722656 -9.679688 4.394531 -9.75 5.21875 -9.75 C 6.175781 -9.75 6.9375 -9.550781 7.5 -9.15625 C 7.820312 -9.28125 8.242188 -9.410156 8.765625 -9.546875 C 9.285156 -9.679688 9.941406 -9.75 10.734375 -9.75 C 11.992188 -9.75 12.910156 -9.429688 13.484375 -8.796875 C 14.054688 -8.160156 14.34375 -7.265625 14.34375 -6.109375 L 14.34375 -0.5625 C 14.34375 -0.351562 14.300781 -0.207031 14.21875 -0.125 C 14.132812 -0.0390625 13.988281 0 13.78125 0 L 12.796875 0 C 12.585938 0 12.4375 -0.0390625 12.34375 -0.125 C 12.257812 -0.207031 12.21875 -0.351562 12.21875 -0.5625 L 12.21875 -6.03125 C 12.21875 -7.21875 11.617188 -7.8125 10.421875 -7.8125 C 10.046875 -7.8125 9.707031 -7.773438 9.40625 -7.703125 C 9.101562 -7.628906 8.847656 -7.554688 8.640625 -7.484375 C 8.710938 -7.285156 8.765625 -7.070312 8.796875 -6.84375 C 8.828125 -6.613281 8.84375 -6.367188 8.84375 -6.109375 L 8.84375 -0.5625 C 8.84375 -0.351562 8.796875 -0.207031 8.703125 -0.125 C 8.617188 -0.0390625 8.472656 0 8.265625 0 L 7.28125 0 C 7.070312 0 6.925781 -0.0390625 6.84375 -0.125 C 6.757812 -0.207031 6.71875 -0.351562 6.71875 -0.5625 L 6.71875 -6.03125 C 6.71875 -7.21875 6.113281 -7.8125 4.90625 -7.8125 C 4.613281 -7.8125 4.347656 -7.789062 4.109375 -7.75 C 3.878906 -7.71875 3.648438 -7.664062 3.421875 -7.59375 C 3.335938 -7.550781 3.296875 -7.476562 3.296875 -7.375 L 3.296875 -0.5625 C 3.296875 -0.351562 3.25 -0.207031 3.15625 -0.125 C 3.070312 -0.0390625 2.925781 0 2.71875 0 Z M 1.71875 0 "/></g></g></g></svg>